<svg width="18" height="32" viewBox="0 0 18 32" fill="none" xmlns="http://www.w3.org/2000/svg">
<path d="M16.5242 0.00659794L12.412 0C7.79215 0 4.80659 3.06309 4.80659 7.80404V11.4022H0.671989C0.31471 11.4022 0.0253906 11.6919 0.0253906 12.0492V17.2625C0.0253906 17.6198 0.31504 17.9091 0.671989 17.9091H4.80659V31.0641C4.80659 31.4214 5.09591 31.7107 5.45318 31.7107H10.8477C11.2049 31.7107 11.4943 31.421 11.4943 31.0641V17.9091H16.3286C16.6858 17.9091 16.9752 17.6198 16.9752 17.2625L16.9771 12.0492C16.9771 11.8776 16.9089 11.7133 16.7878 11.5919C16.6667 11.4705 16.5018 11.4022 16.3302 11.4022H11.4943V8.352C11.4943 6.88594 11.8436 6.14169 13.7534 6.14169L16.5235 6.1407C16.8805 6.1407 17.1698 5.85105 17.1698 5.4941V0.653196C17.1698 0.296577 16.8808 0.00725773 16.5242 0.00659794Z" fill="black"/>
</svg>
