<svg width="32" height="25" viewBox="0 0 32 25" fill="none" xmlns="http://www.w3.org/2000/svg">
<path d="M24.551 10.9241H13.0939V14.7432H20.0839C19.0412 18.0634 15.9399 20.4718 12.2754 20.4718C7.75564 20.4718 4.09184 16.8077 4.09184 12.2881C4.09184 7.76827 7.75577 4.10447 12.2754 4.10447C14.5515 4.10447 16.6101 5.03383 18.0935 6.53348L20.8656 3.52027C18.6516 1.35084 15.6201 0.0126953 12.2754 0.0126953C5.49593 0.0126303 0 5.50856 0 12.2881C0 19.0676 5.49593 24.5637 12.2755 24.5637C18.2142 24.5637 23.4136 20.3462 24.5511 14.7432V10.9242L24.551 10.9241Z" fill="black"/>
<path d="M31.9907 10.9177H29.6472V8.57422H27.6384V10.9177H25.2949V12.9263H27.6384V15.2699H29.6472V12.9263H31.9907V10.9177Z" fill="black"/>
</svg>
