<svg width="32" height="32" viewBox="0 0 32 32" fill="none" xmlns="http://www.w3.org/2000/svg">
<path fill-rule="evenodd" clip-rule="evenodd" d="M8.78193 0H23.0411C27.8839 0 31.8236 3.93976 31.8234 8.78212V23.0413C31.8234 27.8837 27.8839 31.8234 23.0411 31.8234H8.78193C3.93958 31.8234 0 27.8839 0 23.0413V8.78212C0 3.93976 3.93958 0 8.78193 0ZM23.0413 28.9999C26.327 28.9999 29.0001 26.327 29.0001 23.0413H28.9999V8.78212C28.9999 5.49666 26.3268 2.82353 23.0411 2.82353H8.78193C5.49647 2.82353 2.82353 5.49666 2.82353 8.78212V23.0413C2.82353 26.327 5.49647 29.0001 8.78193 28.9999H23.0413Z" fill="black"/>
<path fill-rule="evenodd" clip-rule="evenodd" d="M7.71167 15.912C7.71167 11.3904 11.3902 7.71191 15.9118 7.71191C20.4334 7.71191 24.1119 11.3904 24.1119 15.912C24.1119 20.4334 20.4334 24.1117 15.9118 24.1117C11.3902 24.1117 7.71167 20.4334 7.71167 15.912ZM10.5352 15.9118C10.5352 18.8763 12.9472 21.288 15.9118 21.288C18.8763 21.288 21.2883 18.8763 21.2883 15.9118C21.2883 12.9471 18.8765 10.5353 15.9118 10.5353C12.9471 10.5353 10.5352 12.9471 10.5352 15.9118Z" fill="black"/>
<path d="M24.4557 5.31787C23.9117 5.31787 23.3773 5.53811 22.9931 5.92399C22.6071 6.30799 22.3851 6.84258 22.3851 7.38846C22.3851 7.93265 22.6072 8.46705 22.9931 8.85293C23.3771 9.23693 23.9117 9.45905 24.4557 9.45905C25.0016 9.45905 25.5343 9.23693 25.9202 8.85293C26.3061 8.46705 26.5263 7.93246 26.5263 7.38846C26.5263 6.84258 26.3061 6.30799 25.9202 5.92399C25.5362 5.53811 25.0016 5.31787 24.4557 5.31787Z" fill="black"/>
</svg>
