<svg width="32" height="27" viewBox="0 0 32 27" fill="none" xmlns="http://www.w3.org/2000/svg">
<path d="M31.9999 3.09835C30.8222 3.62023 29.5584 3.97416 28.2306 4.13218C29.5864 3.32031 30.6242 2.03257 31.1161 0.502845C29.8443 1.25469 28.4406 1.80062 26.9448 2.09657C25.7471 0.818818 24.0434 0.0229492 22.1537 0.0229492C18.5284 0.0229492 15.589 2.9624 15.589 6.58572C15.589 7.0996 15.647 7.60151 15.759 8.08146C10.304 7.80747 5.46693 5.19398 2.22954 1.22269C1.66363 2.19053 1.3417 3.31827 1.3417 4.52209C1.3417 6.79968 2.50149 8.8093 4.26118 9.98504C3.18536 9.94907 2.17354 9.65312 1.28774 9.1612V9.24318C1.28774 12.4226 3.55132 15.0761 6.55273 15.68C6.00282 15.828 5.42295 15.91 4.82306 15.91C4.39916 15.91 3.98923 15.868 3.58729 15.788C4.42311 18.3975 6.84669 20.2951 9.71817 20.3471C7.47258 22.1068 4.6411 23.1526 1.5657 23.1526C1.03582 23.1526 0.513882 23.1206 0 23.0626C2.90546 24.9283 6.35482 26.0161 10.0621 26.0161C22.1378 26.0161 28.7386 16.014 28.7386 7.3396L28.7166 6.48977C30.0063 5.56988 31.1221 4.41411 31.9999 3.09835Z" fill="black"/>
</svg>
